P1
5 5
00110
00011
01111
00001
11110
