/* XPM */
static char * aoc2022d9_xpm[] = {
"6 5 11 1",
". c #020202",
"0 c #00ffff",
"1 c #19e5e5",
"2 c #33cccc",
"3 c #4cb2b2",
"4 c #669999",
"5 c #7f7f7f",
"6 c #996666",
"7 c #b24c4c",
"8 c #cc3333",
"9 c #e51919",
".0110.",
".00210",
"014320",
".5321.",
"93210.",
};
