/* XPM */
static char * aoc2022d9_xpm[] = {
"26 21 11 1",
". c #020202",
"0 c #00ffff",
"1 c #19e5e5",
"2 c #33cccc",
"3 c #4cb2b2",
"4 c #669999",
"5 c #7f7f7f",
"6 c #996666",
"7 c #b24c4c",
"8 c #cc3333",
"9 c #e51919",
"0.........................",
"1.........................",
"2.........................",
"3.........................",
"4.........................",
"5.........................",
"6.........................",
"7.......012343210.........",
"8.......123454321.........",
"9.......123465432.........",
"9.......012378999876543210",
"9...........89654987654321",
"89..........98743.98765432",
"789..........9432..9876543",
"6789........94321...987654",
"56789......943210....98765",
"456789..............987654",
"3456789............9876543",
"23456789..........98765432",
"123456789........987654321",
"01234567899999999876543210",
};
